P3
10 7
255
255 0 0 255 0 0 255 0 0 0 0 0 0 0 0 0 0 0 0 0 0 255 128 0 255 128 0 0 0 0 
255 0 0 255 0 0 255 0 0 0 0 0 0 0 0 0 0 0 0 0 0 255 128 0 0 0 0 0 0 0 
255 0 0 255 0 0 0 0 0 0 0 0 0 0 0 0 0 0 0 0 0 255 128 0 0 0 0 0 0 0 
0 0 0 0 0 0 0 0 0 255 255 0 255 255 0 255 255 0 0 0 0 0 0 0 0 0 0 0 0 0 
0 0 0 0 0 0 255 255 0 255 255 0 255 255 0 255 255 0 0 0 0 0 0 0 0 0 0 0 0 0 
0 0 0 0 0 0 255 255 0 255 255 0 255 255 0 0 0 0 0 0 0 0 0 0 0 0 0 0 0 0 
0 0 0 0 0 0 255 255 0 255 255 0 255 255 0 255 255 0 0 0 0 0 0 0 0 0 0 0 0 0 
